<?xml version="1.0" encoding="utf-8"?>
<!-- White version of the logo derived from logo-black.svg -->
<svg version="1.1" id="Layer_1" xmlns="http://www.w3.org/2000/svg" xmlns:xlink="http://www.w3.org/1999/xlink" x="0px" y="0px"
	 viewBox="0 0 925.65 247.25" xml:space="preserve">
<g>
	<g>
		<polyline fill="none" stroke="#ffffff" stroke-width="10" stroke-miterlimit="10" points="
		7.54,166.68 148.59,68.95 206.41,103.64 298.91,45.83 359.09,98.02 379.85,80.52 391.41,92.08 414.54,80.52 522.43,157.71 		"/>
		<path d="M214.21,132.43l3.43,15.42l-69.38-55.25
			c0,0,26.98,61.24,26.98,63.81s0,27.41,0,27.41l12.42-14.13l49.07,28.64v-11.56l46.25,11.56L214.21,132.43z" fill="#ffffff"/>
		<path d="M225.8,120.21c3-3.85,69.81-52.68,69.81-52.68
			s3.1,49.04,5.67,46.79c2.57-2.25,7.07-5.46,7.07-5.46l47.22,73.23l-61.67-46.04l-18.42,10.71l6.42-12.42l-23.46,10.71l7.19-11.99
			l-7.19,0.43l5.47-8.67l3.85-9.74l-27.84,16.7l12.73-19.27L225.8,120.21z" fill="#ffffff"/>
		<path d="M31.37,174.32c2.14-0.86,70.66-45.82,70.66-45.82
			l-61.24,65.95c0,0,4.28-11.99,2.57-10.71c-1.71,1.28-30.66,21.12-30.66,21.12l7.53-21.98L31.37,174.32z" fill="#ffffff"/>
		<path d="M509.7,173.43l-94.43-72.93l6.42,27.62l-6.42,36.62
			l26.34-22.48l5.14,8.35h7.71l33.4,17.99c0,0-3.53-6.02,1.15-5.53C493.7,163.55,509.7,173.43,509.7,173.43z" fill="#ffffff"/>
	</g>
	<g>
		<path d="M597.57,74.42V43.43h9.94v30.96c0,5.37,4.24,9.27,9,9.27c4.76,0,9.06-3.93,9.06-9.27V43.43h9.95v30.99
			c0,11.13-8.51,19.25-18.97,19.25C606.08,93.67,597.57,85.56,597.57,74.42z" fill="#ffffff"/>
		<path d="M687.54,43.31v50.21h-0.46l-29.19-28.4v27.55H648V42.52h0.49l29.13,28.34V43.31H687.54z" fill="#ffffff"/>
		<path d="M697.89,84.12l7.9-5.55c2.17,3.48,5.31,5.06,9.55,5.06c4.64,0,7.75-1.89,7.75-4.52c0-3.6-5.89-6.44-11.04-9
			c-5.52-2.74-11.59-5.77-11.59-13.6c0-8.51,7.2-14.12,16.23-14.12c6.71,0,12.26,2.78,14.49,8.72l-7.29,5.09
			c-1.46-2.93-4.3-4.12-7.05-4.12c-3.69,0-6.44,2.14-6.44,4.67c0,2.93,3.72,3.93,9.37,6.59c8.15,3.84,13.27,7.99,13.27,15.56
			c0,8.97-7.32,14.67-17.85,14.67C707.13,93.58,701.19,90.23,697.89,84.12z" fill="#ffffff"/>
		<path d="M737.31,43.43h10.65l7.57,24.8l10.55-24.62h0.18l10.52,24.59l7.54-24.77H795l-16.02,49.79h-0.58l-12.36-26.72
			l-12.17,26.72h-0.55L737.31,43.43z" fill="#ffffff"/>
		<path d="M636.85,178.63h-24.86l-3.97,8.67h-13.49l29.67-63.66h0.39l29.71,63.66h-13.53L636.85,178.63z M631.99,168l-7.55-16.61
			L616.85,168H631.99z" fill="#ffffff"/>
		<path d="M716.43,156.32c0,19.27-12.25,30.98-32.33,30.98h-18.07v-62.08l18.07-0.04C704.18,125.14,716.43,136.94,716.43,156.32z
			 M703.83,156.28c0-11.64-7.48-18.73-19.77-18.73h-5.59v37.3h5.7C696.39,174.86,703.83,167.84,703.83,156.28z" fill="#ffffff"/>
		<path d="M726.81,176.59l9.98-7.01c2.74,4.39,6.71,6.4,12.06,6.4c5.86,0,9.79-2.39,9.79-5.7c0-4.55-7.44-8.13-13.95-11.37
			c-6.97-3.47-14.64-7.28-14.64-17.19c0-10.75,9.09-17.84,20.5-17.84c8.48,0,15.49,3.51,18.3,11.02l-9.21,6.44
			c-1.85-3.7-5.43-5.2-8.9-5.2c-4.66,0-8.13,2.7-8.13,5.9c0,3.7,4.7,4.97,11.83,8.32c10.29,4.85,16.76,10.1,16.76,19.65
			c0,11.33-9.25,18.54-22.54,18.54C738.48,188.54,730.97,184.3,726.81,176.59z" fill="#ffffff"/>
		<path d="M781.57,156.32c0-17.84,14.53-32.41,32.29-32.41c17.77,0,32.33,14.57,32.33,32.41c0,17.69-14.57,32.18-32.37,32.18
			C796.1,188.5,781.57,174.01,781.57,156.32z M833.56,156.24c0-10.87-8.86-19.73-19.73-19.73c-10.83,0-19.65,8.86-19.65,19.73
			c0,10.79,8.83,19.62,19.65,19.62C824.7,175.86,833.56,167.03,833.56,156.24z" fill="#ffffff"/>
		<path d="M857.11,156.28c0-17.53,14.76-32.37,32.25-32.37c8.09,0.11,15.26,3.31,21.77,9.6l-7.21,9.83
			c-4.24-4.16-9.33-6.71-14.68-6.71c-9.98,0-19.5,8.86-19.5,19.73c0,11.06,9.87,19.61,19.46,19.61c5.7,0,10.64-3.04,14.76-7.09
			l7.17,10.1c-5.47,5.43-12.14,9.52-21.54,9.52C871.68,188.5,857.11,173.74,857.11,156.28z" fill="#ffffff"/>
	</g>
</g>
</svg>
